<svg width="67" height="67" viewBox="0 0 67 67" fill="none" xmlns="http://www.w3.org/2000/svg">
<path d="M33.4949 67C15.0255 67 0 51.9666 0 33.4949C0 15.0232 15.0255 0 33.4949 0C42.449 0 50.8571 3.47906 57.1837 9.80973C63.5153 16.1353 67 24.5524 67 33.4949C67 51.9666 51.9694 67 33.4898 67M33.4898 4.90231C17.7245 4.90231 4.89796 17.732 4.89796 33.4949C4.89796 49.2578 17.7296 62.0875 33.4898 62.0875C49.25 62.0875 62.0867 49.2629 62.0867 33.4949C62.0867 25.8532 59.1173 18.6808 53.7143 13.2786C48.3112 7.87635 41.1327 4.90231 33.4949 4.90231" fill="#414B59"/>
<path d="M33.4991 38.1828C30.7491 38.1828 28.5195 35.9485 28.5195 33.1989C28.5195 30.4493 30.7491 28.215 33.4991 28.215C36.2491 28.215 38.4787 30.4595 38.4787 33.1989C38.4787 35.9383 36.2491 38.1828 33.4991 38.1828Z" fill="#414B59"/>
<path d="M47.0253 45.8145C46.1528 45.8145 45.3008 45.5849 44.5355 45.1462C42.1579 43.7739 41.3416 40.7183 42.7141 38.3462C43.6018 36.8056 45.2549 35.8517 47.0355 35.8517C47.9028 35.8517 48.76 36.0812 49.5202 36.5149C50.6732 37.1831 51.4998 38.2595 51.8416 39.5399C52.1886 40.8254 52.01 42.1722 51.3416 43.325C50.4539 44.8605 48.8008 45.8145 47.0202 45.8145" fill="#652980"/>
<path d="M47.3166 30.2098C45.5411 30.2098 43.883 29.2559 42.9952 27.7204C42.3319 26.5675 42.1483 25.2259 42.4952 23.9404C42.837 22.6548 43.6636 21.5785 44.8166 20.9153C45.5717 20.4766 46.434 20.2419 47.3064 20.2419C49.0819 20.2419 50.735 21.201 51.6228 22.7365C52.286 23.8944 52.4697 25.2361 52.1177 26.5165C51.7707 27.802 50.9493 28.8784 49.7962 29.5466C49.036 29.9803 48.1789 30.2149 47.3064 30.2149" fill="#3BABE1"/>
<path d="M33.4991 22.2313C30.7542 22.2313 28.5195 19.9919 28.5195 17.2525C28.5195 14.5131 30.7491 12.2737 33.4991 12.2737C36.2491 12.2737 38.4787 14.508 38.4787 17.2525C38.4787 19.997 36.2491 22.2313 33.4991 22.2313Z" fill="#E63338"/>
<path d="M19.6784 30.2098C18.806 30.2098 17.9539 29.9752 17.1937 29.5415C14.8111 28.1642 13.9948 25.1136 15.3672 22.7365C16.2601 21.201 17.9131 20.2419 19.6937 20.2419C20.5611 20.2419 21.4233 20.4817 22.1784 20.9153C23.3315 21.5785 24.158 22.6548 24.4999 23.9404C24.8417 25.2259 24.6682 26.5624 24.005 27.7204C23.1223 29.2559 21.459 30.2098 19.6835 30.2098" fill="#009F3E"/>
<path d="M19.7399 46.1002C17.9644 46.1002 16.3114 45.1411 15.4236 43.6057C14.7603 42.4528 14.5818 41.1111 14.9236 39.8256C15.2705 38.535 16.0971 37.4637 17.245 36.7955C18.0052 36.3619 18.8675 36.1272 19.7348 36.1272C21.5154 36.1272 23.1685 37.0862 24.0563 38.6217C24.7195 39.7797 24.893 41.1162 24.5511 42.4018C24.2042 43.6822 23.3777 44.7585 22.2246 45.4268C21.4695 45.8655 20.6124 46.1002 19.7348 46.1002" fill="#F39600"/>
<path d="M29.123 64.0564V47.258C29.123 44.8145 31.1026 42.8301 33.5465 42.8301C35.9904 42.8301 37.97 44.8145 37.97 47.258V64.0564" fill="#414B59"/>
</svg>